<?xml version="1.0" encoding="UTF-8" standalone="no"?>
<svg
   xmlns:dc="http://purl.org/dc/elements/1.1/"
   xmlns:cc="http://creativecommons.org/ns#"
   xmlns:rdf="http://www.w3.org/1999/02/22-rdf-syntax-ns#"
   xmlns:svg="http://www.w3.org/2000/svg"
   xmlns="http://www.w3.org/2000/svg"
   xmlns:sodipodi="http://sodipodi.sourceforge.net/DTD/sodipodi-0.dtd"
   xmlns:inkscape="http://www.inkscape.org/namespaces/inkscape"
   version="1.1"
   id="svg2"
   xml:space="preserve"
   width="666.66669"
   height="666.66669"
   viewBox="0 0 666.66669 666.66669"
   sodipodi:docname="3275432.ai"><metadata
     id="metadata8"><rdf:RDF><cc:Work
         rdf:about=""><dc:format>image/svg+xml</dc:format><dc:type
           rdf:resource="http://purl.org/dc/dcmitype/StillImage" /></cc:Work></rdf:RDF></metadata><defs
     id="defs6"><clipPath
       clipPathUnits="userSpaceOnUse"
       id="clipPath18"><path
         d="M 0,500 H 500 V 0 H 0 Z"
         id="path16" /></clipPath><clipPath
       clipPathUnits="userSpaceOnUse"
       id="clipPath30"><path
         d="M 0,500 H 500 V 0 H 0 Z"
         id="path28" /></clipPath><clipPath
       clipPathUnits="userSpaceOnUse"
       id="clipPath42"><path
         d="M 0,500 H 500 V 0 H 0 Z"
         id="path40" /></clipPath><clipPath
       clipPathUnits="userSpaceOnUse"
       id="clipPath54"><path
         d="m 421.436,245.872 h 40.063 v -85.275 h -40.063 z"
         id="path52" /></clipPath><clipPath
       clipPathUnits="userSpaceOnUse"
       id="clipPath86"><path
         d="M 51.7521,257.559 H 90.2613 V 172.854 H 51.7521 Z"
         id="path84" /></clipPath><clipPath
       clipPathUnits="userSpaceOnUse"
       id="clipPath118"><path
         d="M 0,500 H 500 V 0 H 0 Z"
         id="path116" /></clipPath><clipPath
       clipPathUnits="userSpaceOnUse"
       id="clipPath202"><path
         d="M 0,500 H 500 V 0 H 0 Z"
         id="path200" /></clipPath><clipPath
       clipPathUnits="userSpaceOnUse"
       id="clipPath218"><path
         d="m 243.972,414.867 h 19.751 v -28.109 h -19.751 z"
         id="path216" /></clipPath><clipPath
       clipPathUnits="userSpaceOnUse"
       id="clipPath238"><path
         d="m 273.346,434.389 h 27.06 v -30.715 h -27.06 z"
         id="path236" /></clipPath><clipPath
       clipPathUnits="userSpaceOnUse"
       id="clipPath254"><path
         d="M 0,500 H 500 V 0 H 0 Z"
         id="path252" /></clipPath><clipPath
       clipPathUnits="userSpaceOnUse"
       id="clipPath298"><path
         d="m 169.611,369.679 h 64.434 v -86.435 h -64.434 z"
         id="path296" /></clipPath><clipPath
       clipPathUnits="userSpaceOnUse"
       id="clipPath314"><path
         d="m 189.431,336.143 h 26.32 v -14.075 h -26.32 z"
         id="path312" /></clipPath></defs><sodipodi:namedview
     pagecolor="#ffffff"
     bordercolor="#666666"
     borderopacity="1"
     objecttolerance="10"
     gridtolerance="10"
     guidetolerance="10"
     inkscape:pageopacity="0"
     inkscape:pageshadow="2"
     inkscape:window-width="640"
     inkscape:window-height="480"
     id="namedview4" /><g
     id="g10"
     inkscape:groupmode="layer"
     inkscape:label="3275432"
     transform="matrix(1.3333333,0,0,-1.3333333,0,666.66667)"><g
       id="g12"><g
         id="g14"
         clip-path="url(#clipPath18)"><g
           id="g20"
           transform="translate(416.5879,254.2681)"><path
             d="m 0,0 c 92.003,-53.118 92.003,-139.24 -0.001,-192.358 -92.004,-53.119 -241.171,-53.119 -333.175,-0.001 -92.003,53.118 -92.003,139.24 10e-4,192.359 C -241.171,53.118 -92.003,53.118 0,0"
             style="fill:#f0f0f0;fill-opacity:1;fill-rule:nonzero;stroke:none"
             id="path22" /></g></g></g><g
       id="g24"><g
         id="g26"
         clip-path="url(#clipPath30)"><g
           id="g32"
           transform="translate(258.6934,135.083)"><path
             d="m 0,0 c 31.726,-18.317 31.726,-48.016 -0.001,-66.333 -31.727,-18.317 -83.165,-18.317 -114.892,0 -31.726,18.317 -31.726,48.016 0.001,66.333 C -83.166,18.317 -31.727,18.317 0,0"
             style="fill:#e0e0e0;fill-opacity:1;fill-rule:nonzero;stroke:none"
             id="path34" /></g></g></g><g
       id="g36"><g
         id="g38"
         clip-path="url(#clipPath42)"><g
           id="g44"
           transform="translate(432.2754,160.5967)"><path
             d="m 0,0 -9.526,5.5 c 0,0 -2.333,20.402 -0.781,36.202 C -8.125,63.905 6.213,90.62 23.319,84.346 40.425,78.071 15.476,55.46 9.923,36.629 4.369,17.797 0,0 0,0"
             style="fill:#27debf;fill-opacity:1;fill-rule:nonzero;stroke:none"
             id="path46" /></g><g
           id="g48"><g
             id="g50" /><g
             id="g62"><g
               clip-path="url(#clipPath54)"
               opacity="0.149994"
               id="g60"><g
                 transform="translate(432.2754,160.5967)"
                 id="g58"><path
                   d="m 0,0 -9.526,5.5 c 0,0 -2.333,20.402 -0.781,36.202 C -8.125,63.905 6.213,90.62 23.319,84.346 40.425,78.071 15.476,55.46 9.923,36.629 4.369,17.797 0,0 0,0"
                   style="fill:#000000;fill-opacity:1;fill-rule:nonzero;stroke:none"
                   id="path56" /></g></g></g></g><g
           id="g64"
           transform="translate(427.2656,162.9121)"><path
             d="m 0,0 h 0.02 c 0.318,0.011 0.568,0.278 0.557,0.597 -1.674,49.333 22.885,74.149 23.132,74.393 0.228,0.224 0.23,0.589 0.007,0.815 -0.227,0.228 -0.592,0.23 -0.816,0.007 C 22.647,75.563 -2.267,50.391 -0.576,0.557 -0.565,0.245 -0.31,0 0,0"
             style="fill:#ffffff;fill-opacity:1;fill-rule:nonzero;stroke:none"
             id="path66" /></g><g
           id="g68"
           transform="translate(438.2656,157.167)"><path
             d="m 0,0 -6.779,3.914 c 0,0 -1.153,14 5.711,31.007 5.975,14.807 20.802,27.09 28.259,24.508 7.456,-2.581 7.272,-7.869 3.636,-13.416 C 27.191,40.466 5.072,27.245 0,0"
             style="fill:#27debf;fill-opacity:1;fill-rule:nonzero;stroke:none"
             id="path70" /></g><g
           id="g72"
           transform="translate(434.6895,158.6548)"><path
             d="m 0,0 h 0.003 c 0.318,0.002 0.576,0.26 0.574,0.579 -0.135,31.192 29.153,52.274 29.45,52.484 0.259,0.184 0.322,0.543 0.137,0.804 -0.182,0.258 -0.541,0.323 -0.804,0.136 C 29.061,53.791 -0.714,32.36 -0.576,0.574 -0.575,0.257 -0.317,0 0,0"
             style="fill:#ffffff;fill-opacity:1;fill-rule:nonzero;stroke:none"
             id="path74" /></g><g
           id="g76"
           transform="translate(79.6602,172.854)"><path
             d="m 0,0 8.796,5.936 c 0,0 3.872,23.046 0.274,43.289 C 4.012,77.686 -15.616,87.157 -22.62,84.183 -29.625,81.209 -31.121,72.72 -18.053,56.472 -10.343,46.885 -0.27,26.499 0,0"
             style="fill:#27debf;fill-opacity:1;fill-rule:nonzero;stroke:none"
             id="path78" /></g><g
           id="g80"><g
             id="g82" /><g
             id="g94"><g
               clip-path="url(#clipPath86)"
               opacity="0.149994"
               id="g92"><g
                 transform="translate(79.6602,172.854)"
                 id="g90"><path
                   d="m 0,0 8.796,5.936 c 0,0 3.872,23.046 0.274,43.289 C 4.012,77.686 -15.616,87.157 -22.62,84.183 -29.625,81.209 -31.121,72.72 -18.053,56.472 -10.343,46.885 -0.27,26.499 0,0"
                   style="fill:#000000;fill-opacity:1;fill-rule:nonzero;stroke:none"
                   id="path88" /></g></g></g></g><g
           id="g96"
           transform="translate(82.6807,184.2539)"><path
             d="m 0,0 c -0.03,0 -0.059,0.001 -0.088,0.005 -0.349,0.041 -0.6,0.358 -0.558,0.707 3.177,26.798 -8.136,55.872 -20.44,67.44 -0.257,0.241 -0.269,0.645 -0.028,0.901 0.242,0.254 0.645,0.269 0.901,0.027 C -7.685,57.302 3.844,27.755 0.619,0.562 0.582,0.243 0.312,0.006 0,0"
             style="fill:#ffffff;fill-opacity:1;fill-rule:nonzero;stroke:none"
             id="path98" /></g><g
           id="g100"
           transform="translate(56.6196,157.3125)"><path
             d="m 0,0 c -1.396,-0.838 -5.477,2.189 -6.606,2.916 -1.933,1.243 -3.515,3.026 -4.581,5.058 -1.242,2.363 -1.592,4.915 -1.269,7.563 0.168,1.372 0.525,2.714 0.882,4.051 0.349,1.312 0.699,2.624 1.049,3.936 0.346,1.295 0.694,2.634 0.498,3.96 -0.394,2.671 -2.807,4.5 -4.999,6.077 -2.423,1.742 -4.957,4.056 -5.006,7.279 -0.037,2.488 1.206,4.822 2.71,6.804 1.503,1.981 3.299,3.741 4.652,5.829 0.974,1.502 1.723,3.26 1.525,5.04 -0.122,1.105 -0.602,2.14 -1.151,3.108 -1.179,2.076 -2.718,3.969 -3.546,6.209 -0.828,2.239 -0.771,5.046 0.958,6.693 1.419,1.352 3.561,1.579 5.519,1.487 1.811,-0.084 3.594,-0.866 5.194,-1.716 5.172,-2.746 8.21,-8.751 13.682,-10.835 2.111,-0.804 4.408,-0.945 6.603,-1.48 2.195,-0.534 4.442,-1.606 5.492,-3.606 2.07,-3.943 -1.534,-8.921 -0.051,-13.12 1.312,-3.716 4.974,-5.077 7.08,-8.408 0.921,-1.457 1.159,-3.157 1.049,-4.878 -0.188,-2.911 -0.572,-5.053 -1.905,-8.313 -1.101,-2.694 -4.37,-7.868 -4.37,-7.868 C 23.409,15.786 0.214,0.129 0,0"
             style="fill:#27debf;fill-opacity:1;fill-rule:nonzero;stroke:none"
             id="path102" /></g><g
           id="g104"
           transform="translate(70.1382,165.604)"><path
             d="m 0,0 c -0.009,0 -0.018,0 -0.018,0 -0.36,0.007 -0.639,0.3 -0.632,0.651 0.564,25.317 -11.894,53.015 -20.719,60.961 -0.261,0.235 -0.282,0.638 -0.047,0.9 0.236,0.261 0.638,0.281 0.9,0.048 C -11.514,54.454 1.196,26.296 0.625,0.623 0.617,0.279 0.34,0.006 0,0"
             style="fill:#ffffff;fill-opacity:1;fill-rule:nonzero;stroke:none"
             id="path106" /></g><g
           id="g108"
           transform="translate(65.4736,196.4458)"><path
             d="m 0,0 c -0.062,-0.001 -0.126,0.006 -0.188,0.025 -8.176,2.356 -18.314,2.603 -18.416,2.605 -0.352,0.008 -0.63,0.3 -0.623,0.651 0.008,0.351 0.269,0.634 0.651,0.624 C -18.472,3.902 -8.173,3.652 0.164,1.25 0.502,1.153 0.698,0.799 0.6,0.461 0.521,0.186 0.273,0.005 0,0"
             style="fill:#ffffff;fill-opacity:1;fill-rule:nonzero;stroke:none"
             id="path110" /></g></g></g><g
       id="g112"><g
         id="g114"
         clip-path="url(#clipPath118)"><g
           id="g120"
           transform="translate(301.1592,190.2554)"><path
             d="m 0,0 -3.794,2.193 c -1.195,0.691 -2.164,2.37 -2.164,3.751 L -5.959,163.46 c 0,1.381 0.969,3.06 2.165,3.75 l 105.345,60.821 c 1.196,0.69 3.135,0.69 4.33,0 l 3.795,-2.19 c 1.196,-0.69 2.165,-2.369 2.165,-3.75 V 64.574 c 0,-1.38 -0.969,-3.059 -2.165,-3.75 L 4.329,-0.001 C 3.134,-0.691 1.195,-0.691 0,0"
             style="fill:#455a64;fill-opacity:1;fill-rule:nonzero;stroke:none"
             id="path122" /></g><g
           id="g124"
           transform="translate(412.9824,412.6982)"><path
             d="m 0,0 c -0.15,1.12 -1.061,1.53 -2.15,0.9 l -105.34,-60.83 c -0.6,-0.35 -1.13,-0.93 -1.531,-1.61 l -8.129,4.69 c 0.39,0.68 0.929,1.27 1.53,1.62 L -10.271,5.59 c 1.191,0.69 3.13,0.69 4.331,0 L -2.15,3.4 C -1.051,2.77 -0.141,1.3 0,0"
             style="fill:#455a64;fill-opacity:1;fill-rule:nonzero;stroke:none"
             id="path126" /></g><g
           id="g128"
           transform="translate(305.1221,190.0811)"><path
             d="m 0,0 c -1.2,-0.51 -2.88,-0.45 -3.96,0.17 l -3.8,2.2 c -1.19,0.69 -2.16,2.37 -2.16,3.75 v 157.517 c 0,0.69 0.24,1.45 0.63,2.13 l 8.13,-4.69 c -0.401,-0.68 -0.64,-1.45 -0.64,-2.14 L -1.8,1.42 C -1.8,0.18 -1.021,-0.39 0,0"
             style="fill:#263238;fill-opacity:1;fill-rule:nonzero;stroke:none"
             id="path130" /></g><g
           id="g132"
           transform="translate(303.3232,349.02)"><path
             d="m 0,0 v -157.516 c 0,-1.38 0.97,-1.94 2.165,-1.25 l 105.347,60.826 c 1.196,0.69 2.165,2.369 2.165,3.75 V 63.327 c 0,1.381 -0.969,1.94 -2.165,1.25 L 2.165,3.75 C 0.97,3.06 0,1.381 0,0"
             style="fill:#37474f;fill-opacity:1;fill-rule:nonzero;stroke:none"
             id="path134" /></g><g
           id="g136"
           transform="translate(278.7227,288.978)"><path
             d="M 0,0 C -1.36,0.81 -7.671,4.4 -8,4.59 -9,5.2 -9.36,6.68 -8.431,7.68 L 16.479,34.4 24.6,29.74 -0.301,3.01 C -1.2,2.05 -0.911,0.66 0,0"
             style="fill:#455a64;fill-opacity:1;fill-rule:nonzero;stroke:none"
             id="path138" /></g><g
           id="g140"
           transform="translate(303.3242,318.7139)"><path
             d="m 0,0 -24.905,-26.723 c -1.248,-1.339 -0.195,-3.512 1.63,-3.361 l 23.274,1.916 z"
             style="fill:#37474f;fill-opacity:1;fill-rule:nonzero;stroke:none"
             id="path142" /></g><g
           id="g144"
           transform="translate(358.1611,366.7983)"><path
             d="M 0,0 C 12.278,7.089 22.231,1.342 22.231,-12.835 22.231,-27.012 12.278,-44.251 0,-51.34 -12.277,-58.428 -22.23,-52.682 -22.23,-38.505 -22.23,-24.328 -12.277,-7.088 0,0"
             style="fill:#27debf;fill-opacity:1;fill-rule:nonzero;stroke:none"
             id="path146" /></g><g
           id="g148"
           transform="translate(358.0049,355.6411)"><path
             d="m 0,0 c 3.983,2.3 7.213,0.436 7.213,-4.164 0,-4.599 -3.23,-10.192 -7.213,-12.492 -3.982,-2.299 -7.212,-0.435 -7.212,4.164 0,4.6 3.23,10.193 7.212,12.492"
             style="fill:#ffffff;fill-opacity:1;fill-rule:nonzero;stroke:none"
             id="path150" /></g><g
           id="g152"
           transform="translate(372.2187,331.1162)"><path
             d="M 0,0 C 0,7.557 -5.306,10.62 -11.849,6.841 L -15.94,4.479 C -22.483,0.702 -27.789,-8.487 -27.789,-16.043 v -2.061 c 1.182,-0.393 2.464,-0.587 3.819,-0.59 2.986,-0.006 6.346,0.977 9.912,3.036 5.334,3.08 10.228,8.078 14.058,13.906 z"
             style="fill:#ffffff;fill-opacity:1;fill-rule:nonzero;stroke:none"
             id="path154" /></g><g
           id="g156"
           transform="translate(344.0791,245.2705)"><path
             d="m 0,0 28.165,16.262 c 1.196,0.69 2.165,0.131 2.165,-1.25 L 30.331,5.94 c 0,-1.38 -0.97,-3.06 -2.166,-3.75 L 0,-14.071 c -1.196,-0.691 -2.165,-0.131 -2.165,1.25 v 9.071 c 0,1.38 0.969,3.06 2.165,3.75"
             style="fill:#27debf;fill-opacity:1;fill-rule:nonzero;stroke:none"
             id="path158" /></g><g
           id="g160"
           transform="translate(330.2949,265.5342)"><path
             d="m 0,0 55.734,32.178 c 1.435,0.828 2.598,0.157 2.598,-1.5 v -3.376 c 0,-1.657 -1.163,-3.672 -2.599,-4.5 L -0.001,-9.376 c -1.435,-0.829 -2.598,-0.157 -2.598,1.5 V -4.5 c 0,1.657 1.163,3.671 2.599,4.5"
             style="fill:#fafafa;fill-opacity:1;fill-rule:nonzero;stroke:none"
             id="path162" /></g><g
           id="g164"
           transform="translate(335.3076,283.2476)"><path
             d="m 0,0 1.457,0.842 c 0.357,0.206 0.643,0.479 0.856,0.821 0.213,0.339 0.32,0.779 0.32,1.32 0,0.541 -0.107,0.853 -0.32,0.937 C 2.1,4.004 1.814,3.944 1.457,3.737 L 0,2.896 Z M 1.505,5.575 C 2.263,6.013 2.853,6.079 3.272,5.77 3.692,5.462 3.902,4.778 3.902,3.716 3.902,2.654 3.692,1.722 3.272,0.92 2.853,0.118 2.263,-0.502 1.505,-0.941 L 0,-1.809 v -3.23 c 0,-0.106 -0.025,-0.211 -0.075,-0.318 -0.051,-0.107 -0.111,-0.18 -0.18,-0.219 l -0.761,-0.439 c -0.069,-0.041 -0.129,-0.037 -0.179,0.012 -0.05,0.048 -0.076,0.125 -0.076,0.231 v 9.354 c 0,0.106 0.026,0.212 0.076,0.319 0.05,0.105 0.11,0.18 0.179,0.219 z"
             style="fill:#fafafa;fill-opacity:1;fill-rule:nonzero;stroke:none"
             id="path166" /></g><g
           id="g168"
           transform="translate(343.9209,286.5703)"><path
             d="m 0,0 -1.034,3.529 -1.034,-4.722 z m -0.517,6.059 c 0.1,0.057 0.176,0.06 0.226,0.007 0.051,-0.053 0.095,-0.151 0.132,-0.294 L 2.146,-2.049 C 2.151,-2.074 2.154,-2.105 2.154,-2.145 2.154,-2.251 2.129,-2.356 2.079,-2.463 2.029,-2.569 1.97,-2.643 1.9,-2.682 L 1.224,-3.073 C 1.099,-3.145 1.01,-3.154 0.96,-3.102 0.909,-3.049 0.876,-2.989 0.856,-2.922 L 0.452,-1.549 -2.52,-3.266 -2.924,-5.105 C -2.942,-5.193 -2.978,-5.293 -3.027,-5.404 -3.078,-5.516 -3.165,-5.606 -3.291,-5.68 l -0.677,-0.39 c -0.069,-0.039 -0.129,-0.035 -0.178,0.013 -0.051,0.048 -0.076,0.125 -0.076,0.231 0,0.039 0.003,0.074 0.01,0.107 l 2.304,10.482 c 0.038,0.186 0.081,0.334 0.132,0.445 0.049,0.11 0.125,0.195 0.225,0.252 z"
             style="fill:#fafafa;fill-opacity:1;fill-rule:nonzero;stroke:none"
             id="path170" /></g><g
           id="g172"
           transform="translate(349.5742,296.3359)"><path
             d="M 0,0 C 0.42,0.242 0.79,0.369 1.109,0.379 1.43,0.391 1.695,0.327 1.909,0.189 2.122,0.052 2.283,-0.143 2.394,-0.393 2.503,-0.643 2.564,-0.904 2.577,-1.177 2.583,-1.289 2.56,-1.396 2.507,-1.5 2.453,-1.603 2.392,-1.674 2.323,-1.714 L 1.664,-2.094 C 1.558,-2.156 1.479,-2.17 1.425,-2.139 1.372,-2.107 1.322,-2.051 1.278,-1.971 1.185,-1.783 1.043,-1.655 0.852,-1.587 0.659,-1.52 0.376,-1.593 0,-1.811 c -0.163,-0.093 -0.318,-0.21 -0.465,-0.347 -0.148,-0.139 -0.277,-0.29 -0.386,-0.455 -0.11,-0.164 -0.196,-0.338 -0.258,-0.518 -0.063,-0.182 -0.094,-0.364 -0.094,-0.547 0,-0.223 0.029,-0.386 0.089,-0.492 0.059,-0.106 0.159,-0.168 0.301,-0.187 0.14,-0.021 0.328,-0.006 0.559,0.041 0.232,0.046 0.521,0.111 0.865,0.195 0.376,0.092 0.701,0.131 0.974,0.119 C 1.857,-4.014 2.079,-4.087 2.252,-4.224 2.425,-4.361 2.553,-4.56 2.638,-4.819 2.723,-5.08 2.765,-5.407 2.765,-5.803 2.765,-6.237 2.702,-6.677 2.577,-7.121 2.452,-7.564 2.272,-7.986 2.041,-8.386 1.809,-8.785 1.524,-9.16 1.185,-9.51 0.847,-9.859 0.467,-10.156 0.047,-10.398 c -0.352,-0.204 -0.687,-0.332 -1.006,-0.385 -0.32,-0.055 -0.603,-0.031 -0.851,0.072 -0.248,0.104 -0.447,0.285 -0.598,0.546 -0.15,0.261 -0.235,0.598 -0.253,1.012 -0.007,0.112 0.017,0.219 0.07,0.323 0.053,0.102 0.114,0.174 0.183,0.214 l 0.659,0.38 c 0.106,0.062 0.187,0.08 0.244,0.054 0.057,-0.025 0.104,-0.085 0.142,-0.177 0.044,-0.102 0.096,-0.197 0.16,-0.286 0.062,-0.088 0.146,-0.151 0.253,-0.186 0.106,-0.035 0.24,-0.037 0.4,-0.009 0.16,0.03 0.359,0.113 0.597,0.252 0.188,0.108 0.37,0.234 0.546,0.38 0.175,0.144 0.329,0.306 0.461,0.483 0.131,0.177 0.237,0.364 0.319,0.561 0.081,0.197 0.122,0.406 0.122,0.629 0,0.211 -0.044,0.359 -0.131,0.444 -0.088,0.085 -0.221,0.123 -0.4,0.116 -0.179,-0.005 -0.4,-0.042 -0.663,-0.107 -0.263,-0.064 -0.568,-0.13 -0.912,-0.194 -0.314,-0.065 -0.588,-0.085 -0.824,-0.062 -0.235,0.024 -0.429,0.108 -0.583,0.25 -0.153,0.143 -0.267,0.35 -0.342,0.62 -0.076,0.271 -0.113,0.622 -0.113,1.058 0,0.433 0.063,0.871 0.188,1.308 0.125,0.44 0.298,0.854 0.517,1.241 0.219,0.387 0.481,0.743 0.786,1.068 C -0.679,-0.467 -0.351,-0.203 0,0"
             style="fill:#fafafa;fill-opacity:1;fill-rule:nonzero;stroke:none"
             id="path174" /></g><g
           id="g176"
           transform="translate(356.1377,300.125)"><path
             d="M 0,0 C 0.421,0.242 0.79,0.369 1.109,0.38 1.43,0.391 1.696,0.328 1.91,0.19 2.122,0.053 2.283,-0.142 2.394,-0.392 2.504,-0.643 2.564,-0.904 2.577,-1.176 2.583,-1.289 2.561,-1.396 2.507,-1.499 2.453,-1.602 2.392,-1.674 2.323,-1.713 L 1.664,-2.094 C 1.558,-2.155 1.479,-2.17 1.425,-2.139 1.372,-2.106 1.323,-2.05 1.279,-1.97 1.185,-1.783 1.043,-1.654 0.852,-1.586 0.66,-1.519 0.377,-1.592 0,-1.81 c -0.163,-0.094 -0.317,-0.211 -0.465,-0.348 -0.148,-0.139 -0.276,-0.289 -0.386,-0.454 -0.11,-0.165 -0.196,-0.338 -0.258,-0.519 -0.063,-0.181 -0.094,-0.363 -0.094,-0.547 0,-0.222 0.029,-0.385 0.089,-0.491 0.059,-0.106 0.159,-0.169 0.301,-0.188 0.141,-0.02 0.328,-0.006 0.559,0.041 0.233,0.046 0.521,0.111 0.865,0.195 0.377,0.092 0.701,0.131 0.974,0.12 C 1.857,-4.013 2.08,-4.086 2.252,-4.223 2.425,-4.361 2.554,-4.559 2.638,-4.818 2.723,-5.08 2.765,-5.407 2.765,-5.803 2.765,-6.236 2.702,-6.676 2.577,-7.121 2.452,-7.565 2.272,-7.986 2.041,-8.385 1.81,-8.785 1.524,-9.159 1.185,-9.51 0.847,-9.859 0.467,-10.155 0.048,-10.397 c -0.353,-0.204 -0.688,-0.332 -1.007,-0.386 -0.319,-0.055 -0.603,-0.03 -0.851,0.073 -0.248,0.103 -0.447,0.284 -0.597,0.546 -0.151,0.261 -0.236,0.598 -0.254,1.012 -0.006,0.112 0.017,0.219 0.071,0.322 0.052,0.103 0.113,0.175 0.183,0.215 l 0.658,0.379 c 0.106,0.062 0.187,0.081 0.244,0.054 0.058,-0.025 0.104,-0.084 0.142,-0.177 0.044,-0.101 0.097,-0.196 0.16,-0.286 0.062,-0.087 0.146,-0.15 0.254,-0.185 0.106,-0.035 0.24,-0.037 0.399,-0.009 0.16,0.03 0.359,0.113 0.598,0.251 0.187,0.109 0.369,0.234 0.545,0.381 0.175,0.144 0.329,0.305 0.461,0.482 0.131,0.178 0.238,0.364 0.32,0.562 0.081,0.196 0.121,0.405 0.121,0.628 0,0.212 -0.044,0.36 -0.131,0.445 -0.088,0.084 -0.221,0.123 -0.4,0.116 -0.178,-0.006 -0.4,-0.042 -0.663,-0.108 -0.263,-0.064 -0.568,-0.129 -0.912,-0.193 -0.313,-0.065 -0.588,-0.086 -0.824,-0.063 -0.234,0.025 -0.429,0.108 -0.582,0.25 -0.154,0.143 -0.268,0.35 -0.343,0.621 -0.076,0.27 -0.113,0.622 -0.113,1.057 0,0.433 0.063,0.871 0.188,1.309 0.125,0.44 0.298,0.853 0.517,1.24 0.219,0.388 0.481,0.744 0.786,1.069 C -0.678,-0.467 -0.351,-0.203 0,0"
             style="fill:#fafafa;fill-opacity:1;fill-rule:nonzero;stroke:none"
             id="path178" /></g><g
           id="g180"
           transform="translate(363.4268,298.874)"><path
             d="M 0,0 -0.809,-4.796 C -0.84,-4.958 -0.88,-5.1 -0.927,-5.218 -0.974,-5.337 -1.044,-5.424 -1.138,-5.478 L -1.9,-5.918 c -0.094,-0.054 -0.168,-0.052 -0.221,0.011 -0.054,0.06 -0.089,0.158 -0.108,0.291 l -1.205,8.441 c -0.005,0.045 -0.008,0.082 -0.008,0.111 0,0.106 0.025,0.212 0.075,0.319 0.05,0.105 0.109,0.18 0.179,0.219 l 0.695,0.402 c 0.062,0.035 0.123,0.041 0.18,0.016 0.055,-0.026 0.093,-0.105 0.112,-0.24 l 0.79,-5.683 0.696,4.268 c 0.013,0.076 0.042,0.18 0.09,0.313 0.046,0.133 0.126,0.232 0.239,0.298 L 0.385,3.293 C 0.498,3.358 0.578,3.351 0.625,3.271 0.672,3.192 0.701,3.123 0.714,3.063 L 1.41,-0.401 2.2,6.193 c 0.019,0.157 0.057,0.279 0.113,0.37 0.056,0.09 0.117,0.155 0.179,0.19 L 3.188,7.155 C 3.257,7.194 3.316,7.19 3.366,7.142 3.416,7.094 3.441,7.017 3.441,6.91 3.441,6.882 3.438,6.841 3.433,6.79 L 2.229,-3.042 C 2.209,-3.198 2.174,-3.337 2.121,-3.459 2.067,-3.581 1.994,-3.67 1.899,-3.725 L 1.138,-4.164 C 1.043,-4.219 0.973,-4.214 0.926,-4.149 0.879,-4.084 0.84,-3.989 0.808,-3.862 Z"
             style="fill:#fafafa;fill-opacity:1;fill-rule:nonzero;stroke:none"
             id="path182" /></g><g
           id="g184"
           transform="translate(372.3711,305.501)"><path
             d="M 0,0 C -0.025,0.681 -0.171,1.134 -0.437,1.362 -0.704,1.589 -1.057,1.577 -1.495,1.323 -1.935,1.069 -2.287,0.675 -2.554,0.14 -2.82,-0.396 -2.967,-1.017 -2.991,-1.727 c -0.013,-0.374 -0.02,-0.786 -0.02,-1.235 0,-0.449 0.007,-0.851 0.02,-1.212 0.024,-0.68 0.171,-1.132 0.437,-1.354 0.267,-0.223 0.619,-0.207 1.059,0.046 0.438,0.253 0.791,0.645 1.058,1.174 0.266,0.532 0.412,1.15 0.437,1.861 0.013,0.374 0.019,0.785 0.019,1.234 C 0.019,-0.764 0.013,-0.36 0,0 m -4.261,-2.388 c 0.02,0.551 0.086,1.1 0.202,1.645 0.117,0.545 0.288,1.058 0.513,1.541 0.226,0.482 0.508,0.926 0.846,1.328 0.34,0.404 0.74,0.738 1.205,1.007 0.457,0.264 0.855,0.392 1.193,0.386 C 0.037,3.511 0.319,3.394 0.545,3.167 0.771,2.94 0.942,2.624 1.062,2.221 1.181,1.815 1.25,1.345 1.27,0.806 1.275,0.625 1.28,0.425 1.283,0.205 1.286,-0.015 1.288,-0.243 1.288,-0.479 1.288,-0.716 1.286,-0.946 1.283,-1.17 1.28,-1.395 1.275,-1.6 1.27,-1.786 1.25,-2.339 1.183,-2.886 1.067,-3.431 0.951,-3.976 0.78,-4.489 0.555,-4.972 0.329,-5.454 0.045,-5.896 -0.296,-6.296 -0.639,-6.696 -1.038,-7.028 -1.495,-7.292 -1.96,-7.56 -2.36,-7.691 -2.7,-7.684 c -0.338,0.008 -0.62,0.122 -0.846,0.345 -0.225,0.221 -0.396,0.537 -0.513,0.949 -0.116,0.411 -0.182,0.881 -0.202,1.411 -0.006,0.179 -0.011,0.378 -0.013,0.6 -0.004,0.22 -0.005,0.448 -0.005,0.685 0,0.236 0.001,0.466 0.005,0.69 0.002,0.224 0.007,0.429 0.013,0.616"
             style="fill:#fafafa;fill-opacity:1;fill-rule:nonzero;stroke:none"
             id="path186" /></g><g
           id="g188"
           transform="translate(376.6211,307.2451)"><path
             d="M 0,0 1.363,0.787 C 1.722,0.993 2.006,1.255 2.22,1.571 2.433,1.887 2.539,2.315 2.539,2.856 2.539,3.396 2.433,3.697 2.22,3.758 2.006,3.817 1.722,3.745 1.363,3.538 L 0,2.751 Z M 1.411,5.376 C 2.194,5.828 2.789,5.892 3.197,5.567 3.604,5.242 3.809,4.583 3.809,3.589 3.809,2.884 3.704,2.223 3.494,1.604 3.283,0.986 2.975,0.438 2.567,-0.038 l 1.298,-2.827 c 0.019,-0.047 0.029,-0.095 0.029,-0.144 0,-0.086 -0.021,-0.172 -0.062,-0.26 -0.04,-0.085 -0.09,-0.144 -0.145,-0.177 l -0.8,-0.461 C 2.762,-3.979 2.669,-3.987 2.609,-3.931 2.55,-3.873 2.508,-3.813 2.482,-3.751 L 1.251,-1.087 0,-1.81 v -3.374 c 0,-0.106 -0.025,-0.212 -0.075,-0.317 -0.051,-0.107 -0.11,-0.18 -0.179,-0.221 L -1.016,-6.161 C -1.085,-6.2 -1.144,-6.196 -1.194,-6.147 -1.245,-6.1 -1.27,-6.023 -1.27,-5.917 v 9.354 c 0,0.106 0.025,0.212 0.076,0.318 0.05,0.107 0.109,0.18 0.178,0.221 z"
             style="fill:#fafafa;fill-opacity:1;fill-rule:nonzero;stroke:none"
             id="path190" /></g><g
           id="g192"
           transform="translate(386.2422,313.3652)"><path
             d="M 0,0 C -0.013,0.301 -0.052,0.566 -0.117,0.793 -0.184,1.02 -0.28,1.196 -0.409,1.319 -0.538,1.443 -0.699,1.504 -0.893,1.504 -1.088,1.502 -1.32,1.424 -1.589,1.268 l -1.26,-0.727 v -6.516 l 1.307,0.754 c 0.257,0.149 0.48,0.332 0.668,0.553 0.187,0.219 0.344,0.461 0.47,0.728 0.125,0.265 0.22,0.551 0.287,0.86 0.065,0.308 0.104,0.621 0.117,0.936 0.024,0.73 0.024,1.443 0,2.144 m -1.542,3.105 c 0.464,0.268 0.866,0.407 1.208,0.416 C 0.008,3.529 0.293,3.427 0.522,3.211 0.751,2.996 0.926,2.678 1.049,2.256 1.171,1.834 1.244,1.326 1.27,0.732 1.295,0.033 1.295,-0.682 1.27,-1.41 1.244,-2.033 1.171,-2.626 1.049,-3.188 0.926,-3.752 0.753,-4.272 0.527,-4.75 0.301,-5.228 0.021,-5.657 -0.315,-6.039 -0.65,-6.422 -1.043,-6.743 -1.495,-7.003 l -2.37,-1.368 c -0.07,-0.04 -0.128,-0.036 -0.179,0.013 -0.05,0.047 -0.075,0.124 -0.075,0.231 v 9.354 c 0,0.105 0.025,0.212 0.075,0.318 0.051,0.106 0.109,0.18 0.179,0.22 z"
             style="fill:#fafafa;fill-opacity:1;fill-rule:nonzero;stroke:none"
             id="path194" /></g></g></g><g
       id="g196"><g
         id="g198"
         clip-path="url(#clipPath202)"><g
           id="g204"
           transform="translate(242.5937,429.4336)"><path
             d="M 0,0 C 0.408,-0.09 0.729,-0.317 0.959,-0.681 1.191,-1.044 1.262,-1.43 1.171,-1.839 L 0.084,-6.746 C -0.007,-7.156 -0.233,-7.477 -0.597,-7.707 -0.96,-7.939 -1.345,-8.01 -1.754,-7.919 l -4.796,1.062 c -0.41,0.091 -0.73,0.317 -0.962,0.681 -0.232,0.364 -0.302,0.748 -0.212,1.158 l 1.087,4.909 c 0.091,0.408 0.318,0.728 0.681,0.961 0.364,0.23 0.749,0.301 1.159,0.21 z m 4.783,32.172 c 1.748,-0.387 3.396,-1.006 4.943,-1.856 1.546,-0.849 2.858,-1.89 3.93,-3.123 1.073,-1.231 1.846,-2.631 2.318,-4.199 0.471,-1.566 0.505,-3.262 0.102,-5.083 C 15.747,16.424 15.229,15.183 14.521,14.189 13.813,13.195 13,12.342 12.082,11.629 11.164,10.916 10.195,10.291 9.181,9.756 8.164,9.22 7.202,8.711 6.298,8.23 5.391,7.748 4.57,7.217 3.839,6.639 3.105,6.06 2.594,5.373 2.301,4.58 2.135,4.187 1.89,3.872 1.564,3.633 1.237,3.392 0.87,3.318 0.462,3.408 l -4.239,0.939 c -0.41,0.09 -0.74,0.319 -0.989,0.687 -0.25,0.367 -0.311,0.75 -0.183,1.152 0.395,1.433 0.983,2.639 1.765,3.617 0.783,0.976 1.651,1.818 2.607,2.523 0.956,0.705 1.949,1.314 2.979,1.826 1.03,0.514 1.989,1.013 2.877,1.499 0.887,0.486 1.645,1.001 2.272,1.544 0.628,0.543 1.028,1.206 1.201,1.988 0.312,1.412 -0.024,2.706 -1.013,3.88 -0.988,1.174 -2.468,1.98 -4.438,2.416 -3.16,0.701 -5.834,-0.366 -8.021,-3.197 -0.276,-0.368 -0.54,-0.631 -0.788,-0.79 -0.251,-0.16 -0.618,-0.185 -1.101,-0.078 l -4.517,1 c -0.334,0.074 -0.599,0.25 -0.79,0.526 -0.192,0.277 -0.247,0.601 -0.165,0.973 0.324,1.293 1.019,2.533 2.082,3.722 1.061,1.188 2.357,2.188 3.882,3.002 1.526,0.811 3.232,1.381 5.117,1.704 1.886,0.323 3.813,0.267 5.783,-0.169"
             style="fill:#27debf;fill-opacity:1;fill-rule:nonzero;stroke:none"
             id="path206" /></g><g
           id="g208"
           transform="translate(257.8838,392.8467)"><path
             d="M 0,0 C 0.285,0.046 0.549,-0.018 0.791,-0.191 1.032,-0.366 1.176,-0.595 1.223,-0.879 L 1.782,-4.305 C 1.829,-4.59 1.766,-4.854 1.592,-5.095 1.418,-5.337 1.188,-5.479 0.903,-5.526 l -3.346,-0.547 c -0.286,-0.047 -0.549,0.015 -0.79,0.189 -0.243,0.174 -0.386,0.404 -0.433,0.689 l -0.56,3.425 c -0.045,0.285 0.017,0.548 0.191,0.791 0.174,0.241 0.403,0.385 0.688,0.432 z m -5.168,21.849 c 1.219,0.199 2.434,0.225 3.644,0.076 1.209,-0.149 2.315,-0.48 3.319,-0.994 1.003,-0.517 1.856,-1.216 2.559,-2.1 C 5.06,17.946 5.515,16.868 5.723,15.599 5.892,14.561 5.877,13.631 5.678,12.813 5.479,11.995 5.176,11.239 4.77,10.547 4.363,9.855 3.903,9.207 3.389,8.604 2.875,8 2.389,7.429 1.932,6.888 1.474,6.347 1.084,5.796 0.763,5.237 0.44,4.68 0.288,4.108 0.304,3.525 0.298,3.23 0.221,2.966 0.074,2.729 -0.074,2.491 -0.291,2.35 -0.575,2.303 L -3.533,1.819 c -0.286,-0.047 -0.556,0.016 -0.811,0.188 -0.254,0.171 -0.391,0.401 -0.412,0.691 -0.113,1.021 -0.045,1.944 0.207,2.771 0.25,0.826 0.592,1.589 1.025,2.285 0.431,0.696 0.913,1.341 1.442,1.934 0.529,0.591 1.016,1.158 1.461,1.698 0.444,0.537 0.798,1.061 1.061,1.57 0.263,0.51 0.351,1.036 0.262,1.582 -0.161,0.984 -0.709,1.728 -1.643,2.229 -0.935,0.5 -2.089,0.637 -3.464,0.413 -2.205,-0.361 -3.647,-1.729 -4.324,-4.104 -0.084,-0.305 -0.184,-0.542 -0.304,-0.708 -0.119,-0.167 -0.348,-0.277 -0.685,-0.332 l -3.151,-0.515 c -0.235,-0.039 -0.448,0.006 -0.643,0.134 -0.194,0.129 -0.311,0.323 -0.354,0.582 -0.123,0.911 0.005,1.885 0.383,2.919 0.376,1.034 0.95,2.007 1.719,2.918 0.771,0.912 1.719,1.712 2.844,2.403 1.127,0.69 2.377,1.147 3.752,1.372"
             style="fill:#27debf;fill-opacity:1;fill-rule:nonzero;stroke:none"
             id="path210" /></g><g
           id="g212"><g
             id="g214" /><g
             id="g226"><g
               clip-path="url(#clipPath218)"
               opacity="0.199997"
               id="g224"><g
                 transform="translate(257.8838,392.8467)"
                 id="g222"><path
                   d="M 0,0 C 0.285,0.046 0.549,-0.018 0.791,-0.191 1.032,-0.366 1.176,-0.595 1.223,-0.879 L 1.782,-4.305 C 1.829,-4.59 1.766,-4.854 1.592,-5.095 1.418,-5.337 1.188,-5.479 0.903,-5.526 l -3.346,-0.547 c -0.286,-0.047 -0.549,0.015 -0.79,0.189 -0.243,0.174 -0.386,0.404 -0.433,0.689 l -0.56,3.425 c -0.045,0.285 0.017,0.548 0.191,0.791 0.174,0.241 0.403,0.385 0.688,0.432 z m -5.168,21.849 c 1.219,0.199 2.434,0.225 3.644,0.076 1.209,-0.149 2.315,-0.48 3.319,-0.994 1.003,-0.517 1.856,-1.216 2.559,-2.1 C 5.06,17.946 5.515,16.868 5.723,15.599 5.892,14.561 5.877,13.631 5.678,12.813 5.479,11.995 5.176,11.239 4.77,10.547 4.363,9.855 3.903,9.207 3.389,8.604 2.875,8 2.389,7.429 1.932,6.888 1.474,6.347 1.084,5.796 0.763,5.237 0.44,4.68 0.288,4.108 0.304,3.525 0.298,3.23 0.221,2.966 0.074,2.729 -0.074,2.491 -0.291,2.35 -0.575,2.303 L -3.533,1.819 c -0.286,-0.047 -0.556,0.016 -0.811,0.188 -0.254,0.171 -0.391,0.401 -0.412,0.691 -0.113,1.021 -0.045,1.944 0.207,2.771 0.25,0.826 0.592,1.589 1.025,2.285 0.431,0.696 0.913,1.341 1.442,1.934 0.529,0.591 1.016,1.158 1.461,1.698 0.444,0.537 0.798,1.061 1.061,1.57 0.263,0.51 0.351,1.036 0.262,1.582 -0.161,0.984 -0.709,1.728 -1.643,2.229 -0.935,0.5 -2.089,0.637 -3.464,0.413 -2.205,-0.361 -3.647,-1.729 -4.324,-4.104 -0.084,-0.305 -0.184,-0.542 -0.304,-0.708 -0.119,-0.167 -0.348,-0.277 -0.685,-0.332 l -3.151,-0.515 c -0.235,-0.039 -0.448,0.006 -0.643,0.134 -0.194,0.129 -0.311,0.323 -0.354,0.582 -0.123,0.911 0.005,1.885 0.383,2.919 0.376,1.034 0.95,2.007 1.719,2.918 0.771,0.912 1.719,1.712 2.844,2.403 1.127,0.69 2.377,1.147 3.752,1.372"
                   style="fill:#000000;fill-opacity:1;fill-rule:nonzero;stroke:none"
                   id="path220" /></g></g></g></g><g
           id="g228"
           transform="translate(294.8447,432.0234)"><path
             d="m 0,0 c 1.192,-0.847 2.237,-1.838 3.132,-2.971 0.894,-1.134 1.552,-2.335 1.966,-3.604 0.416,-1.271 0.551,-2.571 0.408,-3.902 -0.144,-1.332 -0.657,-2.619 -1.542,-3.863 -0.722,-1.015 -1.508,-1.785 -2.357,-2.307 -0.849,-0.525 -1.734,-0.909 -2.653,-1.153 -0.92,-0.245 -1.848,-0.407 -2.782,-0.489 -0.938,-0.079 -1.823,-0.155 -2.659,-0.23 -0.836,-0.074 -1.623,-0.212 -2.359,-0.416 -0.737,-0.202 -1.342,-0.556 -1.814,-1.06 -0.25,-0.243 -0.535,-0.402 -0.858,-0.48 -0.322,-0.077 -0.622,-0.015 -0.901,0.183 l -2.894,2.058 c -0.28,0.198 -0.456,0.475 -0.527,0.832 -0.071,0.356 0.004,0.665 0.229,0.926 0.756,0.955 1.582,1.675 2.483,2.163 0.9,0.486 1.822,0.843 2.768,1.07 0.943,0.227 1.885,0.37 2.826,0.428 0.938,0.058 1.82,0.129 2.644,0.212 0.824,0.083 1.557,0.23 2.204,0.439 0.645,0.211 1.159,0.582 1.538,1.115 0.685,0.965 0.842,2.046 0.472,3.246 -0.37,1.199 -1.227,2.277 -2.572,3.234 -2.159,1.534 -4.514,1.583 -7.063,0.147 -0.326,-0.189 -0.608,-0.305 -0.845,-0.345 -0.24,-0.04 -0.524,0.057 -0.854,0.291 l -3.085,2.194 c -0.228,0.162 -0.371,0.378 -0.427,0.647 -0.057,0.271 0.005,0.531 0.185,0.785 0.656,0.871 1.574,1.585 2.754,2.142 1.18,0.557 2.473,0.898 3.882,1.024 1.407,0.126 2.873,0.012 4.396,-0.345 C -2.781,1.614 -1.347,0.957 0,0 m -13.854,-22.712 c 0.28,-0.199 0.449,-0.472 0.508,-0.819 0.058,-0.348 -0.011,-0.661 -0.21,-0.941 l -2.382,-3.35 c -0.199,-0.281 -0.471,-0.449 -0.819,-0.507 -0.347,-0.06 -0.661,0.011 -0.94,0.209 l -3.275,2.328 c -0.28,0.199 -0.448,0.47 -0.507,0.818 -0.059,0.349 0.011,0.662 0.21,0.941 l 2.382,3.351 c 0.199,0.28 0.47,0.449 0.82,0.507 0.346,0.059 0.659,-0.011 0.939,-0.21 z"
             style="fill:#27debf;fill-opacity:1;fill-rule:nonzero;stroke:none"
             id="path230" /></g><g
           id="g232"><g
             id="g234" /><g
             id="g246"><g
               clip-path="url(#clipPath238)"
               opacity="0.600006"
               id="g244"><g
                 transform="translate(294.8447,432.0234)"
                 id="g242"><path
                   d="m 0,0 c 1.192,-0.847 2.237,-1.838 3.132,-2.971 0.894,-1.134 1.552,-2.335 1.966,-3.604 0.416,-1.271 0.551,-2.571 0.408,-3.902 -0.144,-1.332 -0.657,-2.619 -1.542,-3.863 -0.722,-1.015 -1.508,-1.785 -2.357,-2.307 -0.849,-0.525 -1.734,-0.909 -2.653,-1.153 -0.92,-0.245 -1.848,-0.407 -2.782,-0.489 -0.938,-0.079 -1.823,-0.155 -2.659,-0.23 -0.836,-0.074 -1.623,-0.212 -2.359,-0.416 -0.737,-0.202 -1.342,-0.556 -1.814,-1.06 -0.25,-0.243 -0.535,-0.402 -0.858,-0.48 -0.322,-0.077 -0.622,-0.015 -0.901,0.183 l -2.894,2.058 c -0.28,0.198 -0.456,0.475 -0.527,0.832 -0.071,0.356 0.004,0.665 0.229,0.926 0.756,0.955 1.582,1.675 2.483,2.163 0.9,0.486 1.822,0.843 2.768,1.07 0.943,0.227 1.885,0.37 2.826,0.428 0.938,0.058 1.82,0.129 2.644,0.212 0.824,0.083 1.557,0.23 2.204,0.439 0.645,0.211 1.159,0.582 1.538,1.115 0.685,0.965 0.842,2.046 0.472,3.246 -0.37,1.199 -1.227,2.277 -2.572,3.234 -2.159,1.534 -4.514,1.583 -7.063,0.147 -0.326,-0.189 -0.608,-0.305 -0.845,-0.345 -0.24,-0.04 -0.524,0.057 -0.854,0.291 l -3.085,2.194 c -0.228,0.162 -0.371,0.378 -0.427,0.647 -0.057,0.271 0.005,0.531 0.185,0.785 0.656,0.871 1.574,1.585 2.754,2.142 1.18,0.557 2.473,0.898 3.882,1.024 1.407,0.126 2.873,0.012 4.396,-0.345 C -2.781,1.614 -1.347,0.957 0,0 m -13.854,-22.712 c 0.28,-0.199 0.449,-0.472 0.508,-0.819 0.058,-0.348 -0.011,-0.661 -0.21,-0.941 l -2.382,-3.35 c -0.199,-0.281 -0.471,-0.449 -0.819,-0.507 -0.347,-0.06 -0.661,0.011 -0.94,0.209 l -3.275,2.328 c -0.28,0.199 -0.448,0.47 -0.507,0.818 -0.059,0.349 0.011,0.662 0.21,0.941 l 2.382,3.351 c 0.199,0.28 0.47,0.449 0.82,0.507 0.346,0.059 0.659,-0.011 0.939,-0.21 z"
                   style="fill:#ffffff;fill-opacity:1;fill-rule:nonzero;stroke:none"
                   id="path240" /></g></g></g></g></g></g><g
       id="g248"><g
         id="g250"
         clip-path="url(#clipPath254)"><g
           id="g256"
           transform="translate(206.5259,320.7876)"><path
             d="m 0,0 h -35.527 v 86.085 c 0,15.568 12.62,28.188 28.188,28.188 h 3.282 c 15.568,0 28.188,-12.62 28.188,-28.188 V 24.131 C 24.131,10.804 13.327,0 0,0"
             style="fill:#263238;fill-opacity:1;fill-rule:nonzero;stroke:none"
             id="path258" /></g><g
           id="g260"
           transform="translate(167.5449,113.5601)"><path
             d="m 0,0 c -0.292,-2.162 -0.913,-4.686 -1.029,-10.804 -0.125,-6.558 -1.33,-8.886 -1.489,-14.269 -0.182,-6.15 0.88,-8.451 3.376,-11.907 2.496,-3.458 9.045,-6.594 11.814,-0.751 2.802,5.914 2.412,9.67 1.527,15.704 -0.915,6.237 -1.032,9.682 -1.562,14.439 -0.467,4.193 -1.027,7.378 -1.027,7.378 z"
             style="fill:#263238;fill-opacity:1;fill-rule:nonzero;stroke:none"
             id="path262" /></g><g
           id="g264"
           transform="translate(186.1616,157.1299)"><path
             d="m 0,0 -21.604,0.392 c 0.321,-14.422 2.613,-30.43 2.987,-43.962 0.071,-2.547 -0.064,-19.792 0.897,-25.033 1.444,-7.874 10.79,-6.811 11.286,-2.099 0.496,4.713 -0.602,24.846 -0.572,26.922 -0.082,8.678 3.985,23.327 6.118,38.905 C -0.783,-4.109 -0.099,-0.746 0,0"
             style="fill:#ffa8a7;fill-opacity:1;fill-rule:nonzero;stroke:none"
             id="path266" /></g><g
           id="g268"
           transform="translate(213.9141,124.7827)"><path
             d="M 0,0 C 0,0 -0.853,0.458 -1.029,-0.452 -1.238,-1.535 -1.55,-3.767 -2,-5.545 c -0.625,-2.47 -1.145,-6.54 -0.771,-8.554 0.375,-2.013 5.069,-4.605 8.116,-5.541 4.497,-1.38 7.581,-3.634 10.045,-5.953 3.018,-2.84 9.53,-5.524 13.966,-5.491 5.248,0.038 8.907,1.748 10.636,4.558 1.806,2.934 -1.576,3.15 -7.574,7.042 -1.362,0.883 -2.912,1.882 -4.656,3.022 -9.502,6.207 -12.981,9.533 -15.669,15.741 z"
             style="fill:#263238;fill-opacity:1;fill-rule:nonzero;stroke:none"
             id="path270" /></g><g
           id="g272"
           transform="translate(226.082,128.6255)"><path
             d="m 0,0 c -0.16,4.465 2.902,42.346 2.902,42.346 l -20.517,-9.352 c 4.394,-26.224 5.33,-32.408 5.408,-36.698 -0.034,-0.1 -0.122,-0.464 -0.116,-1.099 0.018,-5.094 5.768,-7.843 10.253,-11.239 1.772,-1.341 6.924,-5.302 12.131,-7.918 3.258,-1.638 9.876,-1.787 10.695,0.309 C 15.298,-19.483 7.361,-13.246 3.02,-8.486 0.947,-6.213 0.16,-4.465 0,0"
             style="fill:#ffa8a7;fill-opacity:1;fill-rule:nonzero;stroke:none"
             id="path274" /></g><g
           id="g276"
           transform="translate(173.4106,297.8428)"><path
             d="m 0,0 c -7.876,-17.297 -7.876,-30.674 -6.574,-52.744 1.194,-20.245 3.098,-38.068 3.098,-38.068 -0.305,-3.593 -5.298,-10.602 -5.944,-26.477 -0.603,-14.842 1.023,-33.709 1.023,-33.709 0,0 11.208,-6.212 19.496,0.054 0,0 7.996,38.189 10.34,56.767 2.045,16.214 5.599,36.929 5.599,36.929 l 7.528,-36.841 c 0,0 -2.863,-9.083 -3.533,-16.003 -1.059,-10.928 5.052,-32.386 5.052,-32.386 0,0 11.582,-3.456 18.654,2.816 0,0 2.645,34.888 3.633,48.053 1.321,17.628 -1.458,65.351 -3.634,90.615 z"
             style="fill:#455a64;fill-opacity:1;fill-rule:nonzero;stroke:none"
             id="path278" /></g><g
           id="g280"
           transform="translate(200.4487,240.5947)"><path
             d="m 0,0 3.112,27.732 c 0,0 13.94,1.863 20.255,7.8 0,0 -4.744,-8.694 -16.426,-10.382 L 2.442,-0.655 7.528,-36.841 Z"
             style="fill:#263238;fill-opacity:1;fill-rule:nonzero;stroke:none"
             id="path282" /></g><g
           id="g284"
           transform="translate(256.8955,304.6567)"><path
             d="m 0,0 c 0.869,8.5 0.835,14.164 0.76,15.252 -0.304,4.402 -1.091,5.117 -7.244,12.915 -8.306,10.528 -15.395,19.99 -22.894,29.405 -5.353,6.72 -10.979,7.755 -16.476,7.45 -3.843,-0.212 3.654,-18.682 7.431,-29.61 l 21.551,-23.181 c 0.664,-0.915 0.968,-2.041 0.857,-3.166 l -1.323,-19.734 6.454,-8.633 c 0,0 9.774,8.426 10.884,19.302"
             style="fill:#ffa8a7;fill-opacity:1;fill-rule:nonzero;stroke:none"
             id="path286" /></g><g
           id="g288"
           transform="translate(190.2812,369.0811)"><path
             d="m 0,0 v 0 c -4.167,-0.287 -11.748,-0.954 -11.748,-0.954 -4.374,-2.441 -5.479,-4.442 -6.293,-10.252 -0.346,-2.471 1.668,-9.065 3.398,-18.433 l 3.283,-17.374 -0.356,-8.616 c -1.705,-5.257 -5.559,-11.792 -8.954,-21.424 16.695,-9.319 30.699,-9.663 43.398,-8.033 9.684,1.243 14.808,3.587 16.517,5.901 -0.356,9.516 -1.03,15.392 -1.195,25.333 -0.069,4.176 0.182,8.388 0.344,13.194 6.497,5.337 6.57,14.213 3.026,19.95 C 33.187,-7.379 25.183,1.013 19.881,0.583 Z"
             style="fill:#27debf;fill-opacity:1;fill-rule:nonzero;stroke:none"
             id="path290" /></g><g
           id="g292"><g
             id="g294" /><g
             id="g306"><g
               clip-path="url(#clipPath298)"
               opacity="0.600006"
               id="g304"><g
                 transform="translate(190.2812,369.0811)"
                 id="g302"><path
                   d="m 0,0 v 0 c -4.167,-0.287 -11.748,-0.954 -11.748,-0.954 -4.374,-2.441 -5.479,-4.442 -6.293,-10.252 -0.346,-2.471 1.668,-9.065 3.398,-18.433 l 3.283,-17.374 -0.356,-8.616 c -1.705,-5.257 -5.559,-11.792 -8.954,-21.424 16.695,-9.319 30.699,-9.663 43.398,-8.033 9.684,1.243 14.808,3.587 16.517,5.901 -0.356,9.516 -1.03,15.392 -1.195,25.333 -0.069,4.176 0.182,8.388 0.344,13.194 6.497,5.337 6.57,14.213 3.026,19.95 C 33.187,-7.379 25.183,1.013 19.881,0.583 Z"
                   style="fill:#ffffff;fill-opacity:1;fill-rule:nonzero;stroke:none"
                   id="path300" /></g></g></g></g><g
           id="g308"><g
             id="g310" /><g
             id="g322"><g
               clip-path="url(#clipPath314)"
               opacity="0.100006"
               id="g320"><g
                 transform="translate(215.7515,328.2803)"
                 id="g318"><path
                   d="m 0,0 c 0,0 -7.626,-5.918 -16.329,-2.832 -8.702,3.087 -9.972,10.695 -9.972,10.695 0,0 -0.924,-9.949 10.053,-13.342 C -5.654,-8.753 0,0 0,0"
                   style="fill:#000000;fill-opacity:1;fill-rule:nonzero;stroke:none"
                   id="path316" /></g></g></g></g><g
           id="g324"
           transform="translate(226.0908,396.3901)"><path
             d="m 0,0 c -0.328,-14.438 -5.014,-18.006 -7.362,-19.031 -2.348,-1.026 -6.881,-0.4 -11.279,0.328 v -8.665 c 0,0 5.075,-5.321 4.696,-9.29 -0.39,-3.978 -7.978,-4.419 -13.679,-0.532 -4.161,2.834 -7.132,6.073 -8.429,7.61 -0.472,0.559 -0.727,1.262 -0.727,1.994 v 20.388 c 0,0 -2.41,-2.553 -6.676,0.369 -4.255,2.912 -4.624,8.347 -2.02,11.423 1.856,2.184 6.573,2.338 8.839,-1.056 1.272,-2.492 1.446,-4.994 2.871,-3.958 3.805,2.737 1.764,8.962 6.358,12.038 0.01,0 0.01,0.01 0.02,0.01 1.374,0.738 2.932,1.435 4.676,2.04 8.192,2.831 15.288,5.209 17.001,10.808 C -2.481,22.559 0.4,17.032 0,0"
             style="fill:#ffa8a7;fill-opacity:1;fill-rule:nonzero;stroke:none"
             id="path326" /></g><g
           id="g328"
           transform="translate(211.8379,385.3862)"><path
             d="m 0,0 c 0,-1.047 -0.849,-1.895 -1.895,-1.895 -1.047,0 -1.895,0.848 -1.895,1.895 0,1.046 0.848,1.895 1.895,1.895 C -0.849,1.895 0,1.046 0,0"
             style="fill:#b16668;fill-opacity:1;fill-rule:nonzero;stroke:none"
             id="path330" /></g><g
           id="g332"
           transform="translate(208.6753,398.5786)"><path
             d="M 0,0 C 0.058,-1.145 -0.789,-2.114 -1.89,-2.167 -2.992,-2.219 -3.931,-1.334 -3.989,-0.189 -4.046,0.955 -3.2,1.925 -2.098,1.978 -0.997,2.029 -0.057,1.145 0,0"
             style="fill:#263238;fill-opacity:1;fill-rule:nonzero;stroke:none"
             id="path334" /></g><g
           id="g336"
           transform="translate(223.8306,398.3818)"><path
             d="m 0,0 c 0.052,-1.041 -0.717,-1.922 -1.719,-1.969 -1.101,-0.053 -1.85,0.653 -1.908,1.797 -0.052,1.04 0.717,1.922 1.719,1.969 C -0.907,1.845 -0.052,1.041 0,0"
             style="fill:#263238;fill-opacity:1;fill-rule:nonzero;stroke:none"
             id="path338" /></g><g
           id="g340"
           transform="translate(206.1069,403.3379)"><path
             d="m 0,0 c -3.942,0 -5.479,-0.952 -5.479,-3.396 0,-3.021 2.458,-5.479 5.479,-5.479 3.021,0 5.479,2.458 5.479,5.479 C 5.479,-0.952 3.942,0 0,0 m 0,-9.9 c -3.586,0 -6.504,2.918 -6.504,6.504 0,4.421 4.557,4.421 6.504,4.421 1.947,0 6.504,0 6.504,-4.421 C 6.504,-6.982 3.586,-9.9 0,-9.9"
             style="fill:#455a64;fill-opacity:1;fill-rule:nonzero;stroke:none"
             id="path342" /></g><g
           id="g344"
           transform="translate(222.6177,403.3379)"><path
             d="m 0,0 c -3.942,0 -5.479,-0.952 -5.479,-3.396 0,-3.021 2.458,-5.479 5.479,-5.479 3.021,0 5.479,2.458 5.479,5.479 C 5.479,-0.952 3.942,0 0,0 m 0,-9.9 c -3.586,0 -6.504,2.918 -6.504,6.504 0,4.421 4.557,4.421 6.504,4.421 1.947,0 6.504,0 6.504,-4.421 C 6.504,-6.982 3.586,-9.9 0,-9.9"
             style="fill:#455a64;fill-opacity:1;fill-rule:nonzero;stroke:none"
             id="path346" /></g><g
           id="g348"
           transform="translate(213.6206,402.0376)"><path
             d="m 0,0 0.321,-12.145 6.392,1.98 z"
             style="fill:#f28f8f;fill-opacity:1;fill-rule:nonzero;stroke:none"
             id="path350" /></g><g
           id="g352"
           transform="translate(207.4448,377.6899)"><path
             d="m 0,0 c -4.643,0.609 -14.195,3.353 -15.684,7.129 0,0 0.496,-2.373 3.35,-4.819 C -9.481,-0.135 0,-2.89 0,-2.89 Z"
             style="fill:#f28f8f;fill-opacity:1;fill-rule:nonzero;stroke:none"
             id="path354" /></g><g
           id="g356"
           transform="translate(207.6655,407.936)"><path
             d="M 0,0 -4.236,-2.582 C -4.93,-1.363 -4.543,0.203 -3.374,0.916 -2.204,1.629 -0.694,1.219 0,0"
             style="fill:#263238;fill-opacity:1;fill-rule:nonzero;stroke:none"
             id="path358" /></g><g
           id="g360"
           transform="translate(224.9204,405.0571)"><path
             d="m 0,0 -4.719,1.648 c 0.409,1.331 1.798,2.04 3.101,1.585 C -0.314,2.779 0.41,1.331 0,0"
             style="fill:#263238;fill-opacity:1;fill-rule:nonzero;stroke:none"
             id="path362" /></g><g
           id="g364"
           transform="translate(212.0972,399.4238)"><path
             d="m 0,0 c -0.284,0 -0.512,0.234 -0.512,0.518 0,0.832 1.646,1.369 3.123,1.369 1.477,0 2.431,-0.537 2.431,-1.369 C 5.042,0.234 4.813,0.005 4.529,0.005 4.246,0.005 4.017,0.234 4.017,0.518 3.971,0.612 3.498,0.862 2.611,0.862 1.724,0.862 0.56,0.612 0.512,0.509 0.512,0.225 0.283,0 0,0"
             style="fill:#455a64;fill-opacity:1;fill-rule:nonzero;stroke:none"
             id="path366" /></g><g
           id="g368"
           transform="translate(200.1328,399.8574)"><path
             d="m 0,0 c -0.019,0 -0.038,0.001 -0.058,0.003 l -11.431,1.041 c -0.205,0.19 -0.746,0.749 -1.873,1.216 L 0.056,1.022 C 0.337,0.991 0.54,0.737 0.509,0.456 0.479,0.194 0.257,0 0,0"
             style="fill:#455a64;fill-opacity:1;fill-rule:nonzero;stroke:none"
             id="path370" /></g><g
           id="g372"
           transform="translate(153.2031,387.9438)"><path
             d="m 0,0 c 3.738,4.995 6.287,8.768 9.699,13.049 1.938,2.43 3.176,4.165 5.04,6.66 1.282,1.717 2.034,3.165 3.457,3.697 1.6,0.598 3.143,1.782 4.172,2.864 0.736,0.773 1.338,1.661 1.973,2.517 2.136,2.88 4.689,5.449 7.552,7.607 3.008,2.267 6.352,3.995 9.439,6.155 1.842,1.289 3.817,3.43 1.576,5.429 -0.669,0.597 -1.52,0.953 -2.395,1.144 C 35.072,50.311 30.323,48.435 25.001,47.074 22.688,46.483 20.413,45.742 18.225,44.785 17.163,44.321 16.104,43.816 15.224,43.063 13.852,41.889 13.031,40.218 12.14,38.648 9.747,34.432 4.79,30.712 1.301,27.431 -2.792,23.581 -6.45,20.051 -11.119,15.803 -15.321,11.98 -19.432,8.455 -23.286,4.28 c -3.188,-3.454 -2.028,-6.156 -1.574,-7.09 2.598,-5.343 5.507,-7.259 8.982,-10.57 6.019,-5.734 26.752,-22.227 33.629,-27.672 1.472,-1.165 2.628,-2.676 3.371,-4.4 l 1.313,-3.049 c 7.84,-1.443 13.071,10.327 6.578,24.5 -1.053,2.299 -2.724,4.256 -4.767,5.746 C 16.061,-12.285 0,0 0,0"
             style="fill:#ffa8a7;fill-opacity:1;fill-rule:nonzero;stroke:none"
             id="path374" /></g><g
           id="g376"
           transform="translate(153.2031,387.9438)"><path
             d="m 0,0 c 0,0 -3.544,-4.739 -9.582,-6.595 0,0 5.001,-1.276 11.846,4.867 z"
             style="fill:#f28f8f;fill-opacity:1;fill-rule:nonzero;stroke:none"
             id="path378" /></g><g
           id="g380"
           transform="translate(254.8613,315.0923)"><path
             d="M 0,0 0.026,-0.002 -1.256,1.103 -1.257,1.086 C -1.546,1.318 -1.995,1.391 -2.575,1.233 L -16.46,-2.543 c -1.287,-0.351 -2.684,-1.656 -3.12,-2.916 l -9.992,-28.829 c -0.232,-0.668 -0.139,-1.182 0.184,-1.472 l -0.011,-0.004 1.322,-1.139 -10e-4,0.017 c 0.288,-0.241 0.743,-0.317 1.331,-0.157 l 13.885,3.776 c 1.287,0.35 2.684,1.655 3.12,2.915 1.963,5.667 8.03,23.165 9.992,28.83 C 0.496,-0.812 0.375,-0.277 0,0"
             style="fill:#455a64;fill-opacity:1;fill-rule:nonzero;stroke:none"
             id="path382" /></g><g
           id="g384"
           transform="translate(226.5747,279.6973)"><path
             d="m 0,0 9.992,28.829 c 0.437,1.26 1.833,2.565 3.12,2.915 l 13.886,3.777 c 1.286,0.35 1.975,-0.388 1.539,-1.648 C 26.575,28.207 20.507,10.71 18.545,5.043 18.108,3.783 16.711,2.478 15.424,2.128 L 1.54,-1.648 C 0.253,-1.998 -0.437,-1.26 0,0"
             style="fill:#27debf;fill-opacity:1;fill-rule:nonzero;stroke:none"
             id="path386" /></g><g
           id="g388"
           transform="translate(238.1753,310.6411)"><path
             d="m 0,0 c -0.723,-0.571 -1.345,-1.357 -1.611,-2.118 l -9.995,-28.82 c -0.216,-0.647 -0.153,-1.154 0.139,-1.446 l -1.243,1.065 0.013,0.013 c -0.33,0.292 -0.419,0.799 -0.19,1.472 l 9.995,28.832 c 0.241,0.71 0.812,1.433 1.484,2.004 z"
             style="fill:#37474f;fill-opacity:1;fill-rule:nonzero;stroke:none"
             id="path390" /></g><g
           id="g392"
           transform="translate(251.0469,301.9546)"><path
             d="m 0,0 c -0.979,-2.937 -4.469,-4.896 -10.204,-6.255 -5.734,-1.359 -8.912,-7.449 -7.985,-9.302 0.926,-1.853 10.193,-3.574 13.9,-3.045 3.707,0.53 7.436,5.888 8.559,7.546 C 5.392,-9.398 6.699,2.183 5.508,3.771 4.316,5.36 1.812,5.116 1.812,5.116 Z"
             style="fill:#f28f8f;fill-opacity:1;fill-rule:nonzero;stroke:none"
             id="path394" /></g></g></g></g></svg>
