<?xml version="1.0" standalone="no"?><svg xmlns="http://www.w3.org/2000/svg" viewBox="0 0 1440 320"><path fill="#0099ff" fill-opacity="1" d="M0,160L24,176C48,192,96,224,144,245.3C192,267,240,277,288,256C336,235,384,181,432,160C480,139,528,149,576,128C624,107,672,53,720,42.7C768,32,816,64,864,80C912,96,960,96,1008,85.3C1056,75,1104,53,1152,58.7C1200,64,1248,96,1296,122.7C1344,149,1392,171,1416,181.3L1440,192L1440,0L1416,0C1392,0,1344,0,1296,0C1248,0,1200,0,1152,0C1104,0,1056,0,1008,0C960,0,912,0,864,0C816,0,768,0,720,0C672,0,624,0,576,0C528,0,480,0,432,0C384,0,336,0,288,0C240,0,192,0,144,0C96,0,48,0,24,0L0,0Z"></path></svg>